<svg width="478" height="478" viewBox="0 0 478 478" fill="none" xmlns="http://www.w3.org/2000/svg">
<circle cx="239" cy="239" r="239" fill="#7B2CBF"/>
<path d="M59.642 312V166.545H157.653V191.901H90.3949V226.56H152.611V251.915H90.3949V286.645H157.938V312H59.642ZM182.103 312V166.545H239.489C250.474 166.545 259.849 168.51 267.614 172.44C275.427 176.323 281.369 181.839 285.441 188.989C289.56 196.091 291.62 204.448 291.62 214.06C291.62 223.719 289.537 232.028 285.37 238.989C281.203 245.902 275.166 251.205 267.259 254.898C259.399 258.591 249.882 260.438 238.708 260.438H200.285V235.722H233.737C239.608 235.722 244.485 234.917 248.367 233.307C252.25 231.697 255.138 229.282 257.032 226.062C258.973 222.843 259.944 218.842 259.944 214.06C259.944 209.23 258.973 205.158 257.032 201.844C255.138 198.529 252.226 196.02 248.296 194.315C244.414 192.563 239.513 191.688 233.594 191.688H212.856V312H182.103ZM260.654 245.807L296.805 312H262.856L227.487 245.807H260.654ZM313.353 312V166.545H370.739C381.772 166.545 391.17 168.652 398.935 172.866C406.701 177.033 412.619 182.833 416.691 190.267C420.81 197.653 422.87 206.176 422.87 215.835C422.87 225.494 420.787 234.017 416.62 241.403C412.453 248.79 406.416 254.543 398.509 258.662C390.649 262.781 381.132 264.841 369.958 264.841H333.381V240.196H364.987C370.905 240.196 375.782 239.178 379.617 237.142C383.5 235.059 386.388 232.194 388.282 228.548C390.223 224.855 391.194 220.617 391.194 215.835C391.194 211.006 390.223 206.792 388.282 203.193C386.388 199.547 383.5 196.73 379.617 194.741C375.735 192.705 370.81 191.688 364.844 191.688H344.106V312H313.353Z" fill="white"/>
</svg>
